Coordinates
version=1
nRows=21
nColumns=22
inDegrees=yes

Units are S.I. units (second, meters, Newtons, ...)
If the header above contains a line with 'inDegrees', this indicates whether rotational values are in degrees (yes) or radians (no).

endheader
time	pelvis_tilt	pelvis_list	pelvis_rotation	pelvis_tx	pelvis_ty	pelvis_tz	hip_flexion_r	hip_adduction_r	hip_rotation_r	knee_angle_r	ankle_angle_r	subtalar_angle_r	hip_flexion_l	hip_adduction_l	hip_rotation_l	knee_angle_l	ankle_angle_l	subtalar_angle_l	lumbar_extension	lumbar_bending	lumbar_rotation
      0.01000000	      0.00221287	     -0.06478121	    -27.67329365	     -0.93777380	      0.90616264	     -0.35728416	     -6.84998664	      1.27747734	     -0.91233901	      2.30429627	     13.79704956	      1.57871346	      2.24339990	     -2.10449764	    -11.81380358	    -15.99854681	     15.99439427	      0.88288451	     -3.20921646	     -2.02634793	      5.11083426
      0.02000000	      0.00092528	     -0.06675355	    -27.68157385	     -0.93772657	      0.90616931	     -0.35736713	     -6.84993529	      1.27334217	     -0.91612724	      2.30355582	     13.79480811	      1.57751454	      2.24668124	     -2.09627089	    -11.81558792	    -16.00564880	     15.99003894	      0.88249139	     -3.21579879	     -2.01513933	      5.10954542
      0.03000000	      0.00024522	     -0.06978540	    -27.68925543	     -0.93767882	      0.90617731	     -0.35746794	     -6.84919175	      1.26899450	     -0.91863799	      2.30061414	     13.78941972	      1.57599004	      2.25071054	     -2.08828712	    -11.81795704	    -16.01505531	     15.98449419	      0.88116356	     -3.22674777	     -2.00355860	      5.10805165
      0.04000000	      0.00846728	     -0.09082135	    -27.69216621	     -0.93765661	      0.90621282	     -0.35757214	     -6.85681592	      1.28023502	     -0.92582528	      2.28167498	     13.74874659	      1.56212065	      2.25373848	     -2.10221770	    -11.85264214	    -16.05305356	     15.94613748	      0.85853404	     -3.26343985	     -1.98432621	      5.10154064
      0.05000000	      0.00539281	     -0.09230896	    -27.69739975	     -0.93759436	      0.90621433	     -0.35768983	     -6.85511832	      1.27502756	     -0.92680592	      2.28261993	     13.74668021	      1.56136040	      2.25597542	     -2.09321319	    -11.85408399	    -16.05380937	     15.94617993	      0.85737217	     -3.27107367	     -1.97424387	      5.09939607
      0.06000000	      0.00276051	     -0.09349506	    -27.70008266	     -0.93753152	      0.90621567	     -0.35781938	     -6.85246026	      1.26881600	     -0.92723097	      2.28180530	     13.74265908	      1.56026131	      2.25774704	     -2.08425211	    -11.85801043	    -16.05320148	     15.94556577	      0.85535611	     -3.28054597	     -1.96470311	      5.09487951
      0.07000000	      0.00054451	     -0.09406852	    -27.70059017	     -0.93746412	      0.90621647	     -0.35795545	     -6.84909055	      1.26137278	     -0.92746453	      2.27950979	     13.73703654	      1.55877062	      2.25836837	     -2.07509383	    -11.86492629	    -16.05030839	     15.94430066	      0.85249118	     -3.29042082	     -1.95589003	      5.08724947
      0.08000000	      0.00594811	     -0.09107583	    -27.70376559	     -0.93738596	      0.90623111	     -0.35807019	     -6.84508129	      1.24744908	     -0.92765128	      2.26316898	     13.71368213	      1.55157444	      2.24573322	     -2.06079661	    -11.89370239	    -16.03708178	     15.93583286	      0.83780493	     -3.30137206	     -1.95697420	      5.04864678
      0.09000000	      0.00267759	     -0.09145264	    -27.69910800	     -0.93730530	      0.90622751	     -0.35820535	     -6.84367759	      1.24078514	     -0.92866187	      2.26450710	     13.71221398	      1.55038771	      2.24613654	     -2.05325222	    -11.89930696	    -16.03206231	     15.93420541	      0.83530077	     -3.30761846	     -1.95002341	      5.04812436
      0.10000000	      0.00015349	     -0.09102623	    -27.69457060	     -0.93721182	      0.90622422	     -0.35833530	     -6.84204818	      1.23316814	     -0.92922442	      2.26431586	     13.71013999	      1.54899458	      2.24392982	     -2.04445624	    -11.90701116	    -16.02621680	     15.93238659	      0.83285158	     -3.31048444	     -1.94291105	      5.04419560
      0.11000000	      0.01982477	     -0.06965446	    -27.70154849	     -0.93708315	      0.90624656	     -0.35841927	     -6.85355084	      1.19331014	     -0.93262542	      2.26173958	     13.70054654	      1.52282232	      2.20748235	     -2.00368752	    -11.94889644	    -15.98245837	     15.88998159	      0.78758719	     -3.31475751	     -1.97448047	      5.03174742
      0.12000000	      0.01715964	     -0.07104156	    -27.69733329	     -0.93697999	      0.90624175	     -0.35854138	     -6.85291106	      1.18737295	     -0.93100565	      2.26083865	     13.70091005	      1.52209389	      2.20553598	     -1.99711759	    -11.95174471	    -15.98035432	     15.89003980	      0.78670521	     -3.31551254	     -1.96480456	      5.03057013
      0.13000000	      0.01525659	     -0.07220238	    -27.69022811	     -0.93686085	      0.90623690	     -0.35865816	     -6.85354110	      1.18085911	     -0.92852932	      2.25698707	     13.70082562	      1.52108265	      2.20241232	     -1.99050458	    -11.95618752	    -15.97776674	     15.88998688	      0.78587495	     -3.31273661	     -1.95611614	      5.02872581
      0.14000000	      0.01394114	     -0.07323090	    -27.68243605	     -0.93673362	      0.90623213	     -0.35877295	     -6.85430243	      1.17407183	     -0.92582943	      2.25130416	     13.70048967	      1.51975878	      2.19872176	     -1.98325579	    -11.96114956	    -15.97551891	     15.88990485	      0.78518635	     -3.30836179	     -1.94780108	      5.02668195
      0.15000000	      0.01327474	     -0.07433649	    -27.67386304	     -0.93659801	      0.90622779	     -0.35889009	     -6.85525499	      1.16664386	     -0.92292568	      2.24364696	     13.69999223	      1.51811125	      2.19471426	     -1.97526464	    -11.96586941	    -15.97407118	     15.88986469	      0.78467044	     -3.30296901	     -1.93946357	      5.02504943
      0.16000000	      0.01324962	     -0.07573111	    -27.66425458	     -0.93645339	      0.90622453	     -0.35901288	     -6.85635542	      1.15860747	     -0.91978807	      2.23388585	     13.69938948	      1.51612557	      2.19037347	     -1.96613070	    -11.96979168	    -15.97361041	     15.88989388	      0.78430206	     -3.29706834	     -1.93109051	      5.02406434
      0.17000000	      0.02076655	     -0.06705349	    -27.66251851	     -0.93633186	      0.90623060	     -0.35914163	     -6.83532407	      1.13549215	     -0.91570748	      2.18128693	     13.70320342	      1.49450647	      2.17702470	     -1.94067275	    -11.97310148	    -15.95704315	     15.88900624	      0.78080488	     -3.29812072	     -1.93647187	      5.00545963
      0.18000000	      0.02138177	     -0.06988303	    -27.64970836	     -0.93617369	      0.90622712	     -0.35926870	     -6.83960719	      1.12860478	     -0.91422538	      2.17292412	     13.70466536	      1.49227250	      2.17296483	     -1.93191702	    -11.97320794	    -15.96002325	     15.88817317	      0.78040929	     -3.29027026	     -1.92863135	      5.01067269
      0.19000000	      0.02299343	     -0.07268465	    -27.63653349	     -0.93601827	      0.90622543	     -0.35939864	     -6.84298010	      1.12126628	     -0.91290985	      2.16165974	     13.70568893	      1.48944404	      2.16845691	     -1.92227988	    -11.97165146	    -15.96333631	     15.88745395	      0.77998087	     -3.28418323	     -1.92208987	      5.01480325
      0.20000000	      0.04542829	     -0.06775305	    -27.61910700	     -0.93591446	      0.90625421	     -0.35956527	     -6.82669674	      1.09640492	     -0.94002035	      2.08948825	     13.72418029	      1.45287893	      2.15228321	     -1.88900914	    -11.92248429	    -15.96467855	     15.87941558	      0.77339920	     -3.31082005	     -1.93952119	      5.01446590
      0.21000000	      0.04578759	     -0.07171632	    -27.60556348	     -0.93574615	      0.90625253	     -0.35968474	     -6.83267610	      1.09123863	     -0.94128638	      2.08166039	     13.72691127	      1.44974292	      2.14570061	     -1.88169549	    -11.92270838	    -15.96575394	     15.87804957	      0.77243897	     -3.30008848	     -1.93324758	      5.01604576
